<mxfile host="app.diagrams.net" agent="Mozilla/5.0 (X11; Linux x86_64) AppleWebKit/537.36 (KHTML, like Gecko) Chrome/130.0.0.0 Safari/537.36" version="24.8.4">
  <diagram name="Page-1" id="sXXu67hmAwj4wklGZ8lD">
    <mxGraphModel dx="3718" dy="2676" grid="1" gridSize="10" guides="1" tooltips="1" connect="1" arrows="1" fold="1" page="1" pageScale="1" pageWidth="850" pageHeight="1100" math="0" shadow="0">
      <root>
        <mxCell id="0" />
        <mxCell id="1" parent="0" />
        <mxCell id="3BGXNCvIv7jbFCUcZG6t-31" value="" style="rounded=0;whiteSpace=wrap;html=1;" parent="1" vertex="1">
          <mxGeometry x="-20" y="-20" width="910" height="890" as="geometry" />
        </mxCell>
        <mxCell id="KjJdQQjPQj2NTetO9bAf-2" value="" style="group" parent="1" vertex="1" connectable="0">
          <mxGeometry x="65" y="90" width="720" height="660" as="geometry" />
        </mxCell>
        <mxCell id="3BGXNCvIv7jbFCUcZG6t-1" value="" style="shape=umlLifeline;perimeter=lifelinePerimeter;whiteSpace=wrap;html=1;container=1;dropTarget=0;collapsible=0;recursiveResize=0;outlineConnect=0;portConstraint=eastwest;newEdgeStyle={&quot;curved&quot;:0,&quot;rounded&quot;:0};participant=umlActor;size=50;fillColor=#dae8fc;strokeColor=#6c8ebf;" parent="KjJdQQjPQj2NTetO9bAf-2" vertex="1">
          <mxGeometry x="45" y="30" width="30" height="600" as="geometry" />
        </mxCell>
        <mxCell id="3BGXNCvIv7jbFCUcZG6t-25" value="" style="html=1;points=[[0,0,0,0,5],[0,1,0,0,-5],[1,0,0,0,5],[1,1,0,0,-5]];perimeter=orthogonalPerimeter;outlineConnect=0;targetShapes=umlLifeline;portConstraint=eastwest;newEdgeStyle={&quot;curved&quot;:0,&quot;rounded&quot;:0};" parent="3BGXNCvIv7jbFCUcZG6t-1" vertex="1">
          <mxGeometry x="10" y="90" width="10" height="40" as="geometry" />
        </mxCell>
        <mxCell id="3BGXNCvIv7jbFCUcZG6t-2" value="" style="shape=umlLifeline;perimeter=lifelinePerimeter;whiteSpace=wrap;html=1;container=1;dropTarget=0;collapsible=0;recursiveResize=0;outlineConnect=0;portConstraint=eastwest;newEdgeStyle={&quot;curved&quot;:0,&quot;rounded&quot;:0};participant=umlBoundary;size=40;fillColor=#dae8fc;strokeColor=#6c8ebf;" parent="KjJdQQjPQj2NTetO9bAf-2" vertex="1">
          <mxGeometry x="295" y="30" width="50" height="600" as="geometry" />
        </mxCell>
        <mxCell id="3BGXNCvIv7jbFCUcZG6t-30" value="" style="html=1;points=[[0,0,0,0,5],[0,1,0,0,-5],[1,0,0,0,5],[1,1,0,0,-5]];perimeter=orthogonalPerimeter;outlineConnect=0;targetShapes=umlLifeline;portConstraint=eastwest;newEdgeStyle={&quot;curved&quot;:0,&quot;rounded&quot;:0};" parent="3BGXNCvIv7jbFCUcZG6t-2" vertex="1">
          <mxGeometry x="20" y="80" width="10" height="50" as="geometry" />
        </mxCell>
        <mxCell id="3BGXNCvIv7jbFCUcZG6t-3" value="" style="shape=umlLifeline;perimeter=lifelinePerimeter;whiteSpace=wrap;html=1;container=1;dropTarget=0;collapsible=0;recursiveResize=0;outlineConnect=0;portConstraint=eastwest;newEdgeStyle={&quot;curved&quot;:0,&quot;rounded&quot;:0};participant=umlControl;fillColor=#dae8fc;strokeColor=#6c8ebf;" parent="KjJdQQjPQj2NTetO9bAf-2" vertex="1">
          <mxGeometry x="495" y="30" width="40" height="600" as="geometry" />
        </mxCell>
        <mxCell id="3BGXNCvIv7jbFCUcZG6t-4" value="" style="shape=umlLifeline;perimeter=lifelinePerimeter;whiteSpace=wrap;html=1;container=1;dropTarget=0;collapsible=0;recursiveResize=0;outlineConnect=0;portConstraint=eastwest;newEdgeStyle={&quot;curved&quot;:0,&quot;rounded&quot;:0};participant=umlEntity;fillColor=#dae8fc;strokeColor=#6c8ebf;" parent="KjJdQQjPQj2NTetO9bAf-2" vertex="1">
          <mxGeometry x="635" y="30" width="40" height="600" as="geometry" />
        </mxCell>
        <mxCell id="3BGXNCvIv7jbFCUcZG6t-5" value="&lt;font style=&quot;font-size: 16px;&quot;&gt;User&lt;br&gt;&lt;/font&gt;" style="text;html=1;align=center;verticalAlign=middle;resizable=0;points=[];autosize=1;strokeColor=none;fillColor=none;" parent="KjJdQQjPQj2NTetO9bAf-2" vertex="1">
          <mxGeometry x="30" width="60" height="30" as="geometry" />
        </mxCell>
        <mxCell id="3BGXNCvIv7jbFCUcZG6t-6" value="&lt;font style=&quot;font-size: 16px;&quot;&gt;FlexiRecruit System&lt;br&gt;&lt;/font&gt;" style="text;html=1;align=center;verticalAlign=middle;resizable=0;points=[];autosize=1;strokeColor=none;fillColor=none;" parent="KjJdQQjPQj2NTetO9bAf-2" vertex="1">
          <mxGeometry x="245" width="160" height="30" as="geometry" />
        </mxCell>
        <mxCell id="3BGXNCvIv7jbFCUcZG6t-7" value="&lt;font style=&quot;font-size: 16px;&quot;&gt;Validator&lt;br&gt;&lt;/font&gt;" style="text;html=1;align=center;verticalAlign=middle;resizable=0;points=[];autosize=1;strokeColor=none;fillColor=none;" parent="KjJdQQjPQj2NTetO9bAf-2" vertex="1">
          <mxGeometry x="470" width="90" height="30" as="geometry" />
        </mxCell>
        <mxCell id="3BGXNCvIv7jbFCUcZG6t-8" value="&lt;font style=&quot;font-size: 16px;&quot;&gt;User Database&lt;br&gt;&lt;/font&gt;" style="text;html=1;align=center;verticalAlign=middle;resizable=0;points=[];autosize=1;strokeColor=none;fillColor=none;" parent="KjJdQQjPQj2NTetO9bAf-2" vertex="1">
          <mxGeometry x="590" width="130" height="30" as="geometry" />
        </mxCell>
        <mxCell id="3BGXNCvIv7jbFCUcZG6t-9" value="&lt;font style=&quot;font-size: 14px;&quot;&gt;Logs In ()&lt;br&gt;&lt;/font&gt;" style="html=1;verticalAlign=bottom;endArrow=block;curved=0;rounded=0;" parent="KjJdQQjPQj2NTetO9bAf-2" edge="1">
          <mxGeometry x="-0.2141" width="80" relative="1" as="geometry">
            <mxPoint x="65" y="130" as="sourcePoint" />
            <mxPoint x="315" y="130" as="targetPoint" />
            <mxPoint as="offset" />
          </mxGeometry>
        </mxCell>
        <mxCell id="3BGXNCvIv7jbFCUcZG6t-21" value="" style="shape=umlDestroy;whiteSpace=wrap;html=1;strokeWidth=3;targetShapes=umlLifeline;" parent="KjJdQQjPQj2NTetO9bAf-2" vertex="1">
          <mxGeometry x="45" y="630" width="30" height="30" as="geometry" />
        </mxCell>
        <mxCell id="3BGXNCvIv7jbFCUcZG6t-22" value="" style="shape=umlDestroy;whiteSpace=wrap;html=1;strokeWidth=3;targetShapes=umlLifeline;" parent="KjJdQQjPQj2NTetO9bAf-2" vertex="1">
          <mxGeometry x="305" y="630" width="30" height="30" as="geometry" />
        </mxCell>
        <mxCell id="3BGXNCvIv7jbFCUcZG6t-23" value="" style="shape=umlDestroy;whiteSpace=wrap;html=1;strokeWidth=3;targetShapes=umlLifeline;" parent="KjJdQQjPQj2NTetO9bAf-2" vertex="1">
          <mxGeometry x="500" y="630" width="30" height="30" as="geometry" />
        </mxCell>
        <mxCell id="3BGXNCvIv7jbFCUcZG6t-24" value="" style="shape=umlDestroy;whiteSpace=wrap;html=1;strokeWidth=3;targetShapes=umlLifeline;" parent="KjJdQQjPQj2NTetO9bAf-2" vertex="1">
          <mxGeometry x="640" y="630" width="30" height="30" as="geometry" />
        </mxCell>
        <mxCell id="KjJdQQjPQj2NTetO9bAf-1" value="" style="group" parent="KjJdQQjPQj2NTetO9bAf-2" vertex="1" connectable="0">
          <mxGeometry y="170" width="720" height="320" as="geometry" />
        </mxCell>
        <mxCell id="3BGXNCvIv7jbFCUcZG6t-12" value="&lt;b style=&quot;font-size: 14px;&quot;&gt;alt&lt;br&gt;&lt;/b&gt;" style="shape=umlFrame;whiteSpace=wrap;html=1;pointerEvents=0;strokeWidth=2;fillColor=#bac8d3;strokeColor=#23445d;" parent="KjJdQQjPQj2NTetO9bAf-1" vertex="1">
          <mxGeometry width="720" height="320" as="geometry" />
        </mxCell>
        <mxCell id="3BGXNCvIv7jbFCUcZG6t-13" value="&lt;font style=&quot;font-size: 14px;&quot;&gt;&lt;b&gt;[ Successful Login ]&lt;/b&gt;&lt;br&gt;&lt;/font&gt;" style="text;html=1;align=center;verticalAlign=middle;resizable=0;points=[];autosize=1;strokeColor=none;fillColor=none;" parent="KjJdQQjPQj2NTetO9bAf-1" vertex="1">
          <mxGeometry x="70" y="8" width="160" height="30" as="geometry" />
        </mxCell>
        <mxCell id="3BGXNCvIv7jbFCUcZG6t-14" value="&lt;font style=&quot;font-size: 14px;&quot;&gt;Validate Credentials&lt;br&gt;&lt;/font&gt;" style="html=1;verticalAlign=bottom;endArrow=block;curved=0;rounded=0;" parent="KjJdQQjPQj2NTetO9bAf-1" target="3BGXNCvIv7jbFCUcZG6t-26" edge="1">
          <mxGeometry width="80" relative="1" as="geometry">
            <mxPoint x="510" y="40" as="sourcePoint" />
            <mxPoint x="430" y="40" as="targetPoint" />
          </mxGeometry>
        </mxCell>
        <mxCell id="3BGXNCvIv7jbFCUcZG6t-15" value="&lt;font style=&quot;font-size: 14px;&quot;&gt;Fetch User Details&lt;br&gt;&lt;/font&gt;" style="html=1;verticalAlign=bottom;endArrow=block;curved=0;rounded=0;" parent="KjJdQQjPQj2NTetO9bAf-1" target="3BGXNCvIv7jbFCUcZG6t-27" edge="1">
          <mxGeometry x="-0.3124" width="80" relative="1" as="geometry">
            <mxPoint x="315" y="80" as="sourcePoint" />
            <mxPoint x="395" y="80" as="targetPoint" />
            <mxPoint as="offset" />
          </mxGeometry>
        </mxCell>
        <mxCell id="3BGXNCvIv7jbFCUcZG6t-16" value="&lt;font style=&quot;font-size: 14px;&quot;&gt;Return User Details&lt;br&gt;&lt;/font&gt;" style="html=1;verticalAlign=bottom;endArrow=open;dashed=1;endSize=8;curved=0;rounded=0;" parent="KjJdQQjPQj2NTetO9bAf-1" edge="1">
          <mxGeometry x="0.3124" relative="1" as="geometry">
            <mxPoint x="649.5000000000002" y="120" as="sourcePoint" />
            <mxPoint x="320" y="120" as="targetPoint" />
            <mxPoint as="offset" />
          </mxGeometry>
        </mxCell>
        <mxCell id="3BGXNCvIv7jbFCUcZG6t-17" value="&lt;font style=&quot;font-size: 14px;&quot;&gt;Display Dashboard&lt;br&gt;&lt;/font&gt;" style="html=1;verticalAlign=bottom;endArrow=block;curved=0;rounded=0;" parent="KjJdQQjPQj2NTetO9bAf-1" target="3BGXNCvIv7jbFCUcZG6t-28" edge="1">
          <mxGeometry width="80" relative="1" as="geometry">
            <mxPoint x="315" y="160" as="sourcePoint" />
            <mxPoint x="120" y="160" as="targetPoint" />
          </mxGeometry>
        </mxCell>
        <mxCell id="3BGXNCvIv7jbFCUcZG6t-18" value="" style="endArrow=none;dashed=1;html=1;rounded=0;entryX=0.996;entryY=0.628;entryDx=0;entryDy=0;entryPerimeter=0;strokeWidth=2;fillColor=#bac8d3;strokeColor=#23445d;" parent="KjJdQQjPQj2NTetO9bAf-1" target="3BGXNCvIv7jbFCUcZG6t-12" edge="1">
          <mxGeometry width="50" height="50" relative="1" as="geometry">
            <mxPoint x="10" y="200" as="sourcePoint" />
            <mxPoint x="720" y="200" as="targetPoint" />
          </mxGeometry>
        </mxCell>
        <mxCell id="3BGXNCvIv7jbFCUcZG6t-19" value="&lt;b&gt;&lt;font style=&quot;font-size: 14px;&quot;&gt;[ Failed Login ]&lt;br&gt;&lt;/font&gt;&lt;/b&gt;" style="text;html=1;align=center;verticalAlign=middle;resizable=0;points=[];autosize=1;strokeColor=none;fillColor=none;" parent="KjJdQQjPQj2NTetO9bAf-1" vertex="1">
          <mxGeometry x="75" y="210" width="120" height="30" as="geometry" />
        </mxCell>
        <mxCell id="3BGXNCvIv7jbFCUcZG6t-20" value="&lt;font style=&quot;font-size: 14px;&quot;&gt;Error Message ( Invalid Credentials )&lt;br&gt;&lt;/font&gt;" style="html=1;verticalAlign=bottom;endArrow=block;curved=0;rounded=0;" parent="KjJdQQjPQj2NTetO9bAf-1" edge="1">
          <mxGeometry width="80" relative="1" as="geometry">
            <mxPoint x="314.5" y="280" as="sourcePoint" />
            <mxPoint x="60" y="280" as="targetPoint" />
          </mxGeometry>
        </mxCell>
        <mxCell id="3BGXNCvIv7jbFCUcZG6t-26" value="" style="html=1;points=[[0,0,0,0,5],[0,1,0,0,-5],[1,0,0,0,5],[1,1,0,0,-5]];perimeter=orthogonalPerimeter;outlineConnect=0;targetShapes=umlLifeline;portConstraint=eastwest;newEdgeStyle={&quot;curved&quot;:0,&quot;rounded&quot;:0};" parent="KjJdQQjPQj2NTetO9bAf-1" vertex="1">
          <mxGeometry x="310" y="20" width="10" height="160" as="geometry" />
        </mxCell>
        <mxCell id="3BGXNCvIv7jbFCUcZG6t-27" value="" style="html=1;points=[[0,0,0,0,5],[0,1,0,0,-5],[1,0,0,0,5],[1,1,0,0,-5]];perimeter=orthogonalPerimeter;outlineConnect=0;targetShapes=umlLifeline;portConstraint=eastwest;newEdgeStyle={&quot;curved&quot;:0,&quot;rounded&quot;:0};" parent="KjJdQQjPQj2NTetO9bAf-1" vertex="1">
          <mxGeometry x="645" y="40" width="10" height="110" as="geometry" />
        </mxCell>
        <mxCell id="3BGXNCvIv7jbFCUcZG6t-28" value="" style="html=1;points=[[0,0,0,0,5],[0,1,0,0,-5],[1,0,0,0,5],[1,1,0,0,-5]];perimeter=orthogonalPerimeter;outlineConnect=0;targetShapes=umlLifeline;portConstraint=eastwest;newEdgeStyle={&quot;curved&quot;:0,&quot;rounded&quot;:0};" parent="KjJdQQjPQj2NTetO9bAf-1" vertex="1">
          <mxGeometry x="50" y="140" width="10" height="50" as="geometry" />
        </mxCell>
        <mxCell id="3BGXNCvIv7jbFCUcZG6t-29" value="" style="html=1;points=[[0,0,0,0,5],[0,1,0,0,-5],[1,0,0,0,5],[1,1,0,0,-5]];perimeter=orthogonalPerimeter;outlineConnect=0;targetShapes=umlLifeline;portConstraint=eastwest;newEdgeStyle={&quot;curved&quot;:0,&quot;rounded&quot;:0};" parent="KjJdQQjPQj2NTetO9bAf-1" vertex="1">
          <mxGeometry x="50" y="250" width="10" height="50" as="geometry" />
        </mxCell>
      </root>
    </mxGraphModel>
  </diagram>
</mxfile>
